HIERARCHY
ROOT pelvis
{
  OFFSET 0 100 0
  CHANNELS 6 Xposition Yposition Zposition Zrotation Xrotation Yrotation
  JOINT pelvis_right_femur
  {
    OFFSET -10.78128 -3.44521 -0.5502486
    CHANNELS 3 Zrotation Xrotation Yrotation
    JOINT right_femur_tibia
    {
      OFFSET -0.8047443 -44.0398 -0.1307829
      CHANNELS 3 Zrotation Xrotation Yrotation
      JOINT right_tibia_foot
      {
        OFFSET 3.006224 -47.83518 -5
        CHANNELS 3 Zrotation Xrotation Yrotation
        End Site
        {
          OFFSET 0 -5 15
        }
      }
    }
  }
  JOINT pelvis_left_femur
  {
    OFFSET 10.78128 -3.44521 -0.5502486
    CHANNELS 3 Zrotation Xrotation Yrotation
    JOINT left_femur_tibia
    {
      OFFSET 0.8047443 -44.0398 -0.1307829
      CHANNELS 3 Zrotation Xrotation Yrotation
      JOINT left_tibia_foot
      {
        OFFSET -4.370144 -48.10324 -4.275266
        CHANNELS 3 Zrotation Xrotation Yrotation
        End Site
        {
          OFFSET 0 -5 15
        }
      }
    }
  }
  JOINT pelvis_spine1
  {
    OFFSET 0 6.468898 -3.129235
    CHANNELS 3 Zrotation Xrotation Yrotation
    JOINT spine1
    {
      OFFSET 0 23.15396 4.99043
      CHANNELS 3 Zrotation Xrotation Yrotation
      JOINT spine2
      {
        OFFSET 0 20.79997 -5.064912
        CHANNELS 3 Zrotation Xrotation Yrotation
        JOINT neck
        {
          OFFSET 0 14.38658 9.616178
          CHANNELS 3 Zrotation Xrotation Yrotation
          End Site
          {
            OFFSET 0 20 0
          }
        }
      }
      JOINT right_manubrium
      {
        OFFSET -5.722621 16.35077 3.967754
        CHANNELS 3 Zrotation Xrotation Yrotation
        JOINT right_clavicle
        {
          OFFSET -13.16364 1.694482 -4.693211
          CHANNELS 3 Zrotation Xrotation Yrotation
          JOINT right_humerus
          {
            OFFSET -28.5034 -0.3100689 -2.792744
            CHANNELS 3 Zrotation Xrotation Yrotation
            JOINT right_radius
            {
              OFFSET -25.15693 0.02248979 -1.271978
              CHANNELS 3 Zrotation Xrotation Yrotation
              End Site
              {
                OFFSET -15 0 0
              }
            }
          }
        }
      }
      JOINT left_manubrium
      {
        OFFSET 5.722621 16.35077 3.967754
        CHANNELS 3 Zrotation Xrotation Yrotation
        JOINT left_clavicle
        {
          OFFSET 13.16364 1.694482 -4.693211
          CHANNELS 3 Zrotation Xrotation Yrotation
          JOINT left_humerus
          {
            OFFSET 29.39168 -1.063119 -2.237045
            CHANNELS 3 Zrotation Xrotation Yrotation
            JOINT left_radius
            {
              OFFSET 24.59957 -0.9528479 0.9047498
              CHANNELS 3 Zrotation Xrotation Yrotation
              End Site
              {
                OFFSET 15 -0 -0
              }
            }
          }
        }
      }
    }
  }
}
MOTION
Frames: 23
Frame Time: 0.0416666666667
0 103.5113 0 1.488859 -0.4341111 -0.1533347 3.263616 -16.83716 10.98117 -0 39.35359 -0 -5.544217 -17.30687 -3.095875 -8.079193 8.971497 -23.14614 -0 4.210116 -0 16.00803 -13.57345 30.56126 -4.78739 -3.892263 5.245607 3.093575 10.65515 -7.824898 1.383207 21.70197 6.568273 2.71945 -24.78488 9.829365 6.988902 -20.39379 12.01598 84.61422 38.69411 -17.26907 -0 0 16.68733 -6.341284 8.281433 4.616974 5.625783 -19.09524 -1.112647 -91.755 20.54786 20.068 0 0 -14.17451 15.46372 13.50801 -4.584538
0.4277936 104.1876 1.415625 1.244367 -0.110736 -0.2756249 3.691122 -18.39308 10.51813 -0 38.1617 -0 -5.628524 -16.24748 -2.850714 -7.863357 9.273688 -22.71743 -0 4.6196 -0 15.51709 -14.03159 29.91433 -4.550698 -3.668084 5.118143 3.088878 10.6034 -7.83587 1.381925 21.59609 6.632568 2.833776 -24.91365 9.816125 6.934521 -20.22051 11.97972 84.77381 38.65013 -17.49458 -0 0 16.38501 -6.457117 8.326975 4.564685 5.833331 -19.34265 -1.193212 -91.58638 20.43985 19.8264 0 0 -14.72266 15.70749 13.48033 -4.745764
0.8094467 104.8078 3.127044 0.852202 0.919862 -0.3579941 4.88986 -21.72929 10.52752 -0 34.64621 -0 -5.168647 -15.91885 -2.739606 -7.603145 10.02791 -22.06723 -0 5.385844 -0 15.11071 -15.00945 29.2535 -4.22675 -3.372593 5.144847 3.284383 10.28887 -8.005608 1.446361 21.21974 6.541487 2.798853 -25.28504 9.856493 6.839588 -19.91992 11.78109 84.94091 38.86907 -18.03082 -0 0 16.26158 -5.479707 8.015363 3.934067 6.268696 -19.54158 -0.9525603 -91.3566 20.34744 19.36985 0 0 -15.97864 16.06539 12.87681 -5.03715
1.140631 105.3497 4.909795 0.6723526 1.538454 -0.4266605 5.707661 -23.29264 11.18341 -0 32.53965 -0 -4.53228 -16.97034 -3.10303 -7.48491 10.76328 -22.16248 -0 5.710676 -0 14.59618 -15.88007 29.19405 -4.105029 -3.279044 5.21497 3.450417 9.817646 -8.103243 1.60557 21.06006 6.362389 2.567177 -25.5276 10.03415 6.710377 -19.70766 11.53058 85.03167 38.93522 -18.4017 -0 0 16.41625 -4.29274 7.739839 3.364563 6.357881 -19.25848 -0.5832663 -91.57252 21.44943 19.41387 0 0 -16.75348 15.05475 12.84093 -3.755007
1.436424 105.8488 6.897687 0.4152339 1.847907 -0.4293569 6.130317 -24.77378 10.80139 -0 31.01754 -0 -4.553049 -15.97332 -3.001239 -7.225377 11.28818 -21.85166 -0 6.141937 -0 13.58507 -16.64733 28.36692 -3.836962 -3.059311 5.045994 3.424225 9.625402 -8.080721 1.673212 21.01149 6.404725 2.615348 -25.67531 10.10108 6.533796 -19.48791 11.42375 85.33552 38.66275 -18.76358 -0 0 16.02675 -4.444531 7.904985 3.376071 6.477755 -19.40855 -0.6324408 -91.53208 22.09964 19.31276 0 0 -17.58195 14.42273 13.15809 -2.803688
1.711333 106.2939 9.319837 0.0212722 2.017166 -0.3074457 6.296533 -26.86347 9.196125 -0 28.97524 -0 -5.190515 -12.59116 -2.307467 -6.804359 11.66552 -20.76749 -0 6.77458 -0 12.14716 -17.41225 26.545 -3.353584 -2.674537 4.660132 3.251817 9.768726 -8.001053 1.627022 20.97268 6.630623 2.915736 -25.81004 9.996378 6.197001 -19.28779 11.46716 85.98675 37.83856 -19.27923 -0 0 14.97825 -5.956488 8.416147 3.998726 6.741735 -20.18375 -1.130983 -91.01112 21.92429 18.82153 0 0 -18.89098 14.49347 13.54803 -2.562485
1.973427 106.5847 12.39557 -0.4315664 1.992405 -0.03816319 6.157597 -29.44307 6.470977 -0 25.37421 -0 -6.191383 -7.56653 -1.181049 -6.279027 12.04902 -18.84388 -0 7.502278 -0 10.2002 -18.36341 23.77116 -2.687734 -2.168657 4.13758 2.975623 10.14214 -7.894749 1.507685 20.95715 6.895265 3.281845 -25.85493 9.69153 5.484406 -19.14464 11.5924 87.06609 35.95304 -20.04174 -0 0 13.3525 -8.599946 9.022849 5.207897 7.122389 -21.50842 -2.043072 -90.03005 21.25581 17.8567 0 0 -20.98666 14.70386 13.9297 -2.461633
2.234726 106.4781 16.37767 -0.7004758 1.341673 0.3477272 5.200093 -31.7686 2.093438 -0 18.94505 -0 -7.524305 -1.183334 0.3524889 -5.790187 12.48894 -15.66152 -0 8.058923 -0 7.813988 -19.50283 19.92278 -1.934207 -1.642066 3.540971 2.550142 10.82829 -7.753116 1.29974 21.09311 7.032891 3.528691 -25.47725 8.991942 3.970521 -19.1695 11.79032 88.81806 31.85891 -21.08858 -0 0 10.95832 -12.82521 9.413488 7.300966 7.595607 -23.5785 -3.586772 -88.28872 19.83948 15.91936 0 0 -24.31606 14.83605 14.16453 -2.469235
2.465337 105.5882 21.4876 -0.1825717 -0.6828047 0.738486 2.950891 -31.74381 -3.8251 -0 8.538774 -0 -8.728845 4.384804 1.44481 -5.745708 13.69091 -11.24332 -0 8.322738 -0 5.303175 -20.84649 15.58022 -1.492933 -1.498109 3.036309 1.92312 11.54909 -7.531787 1.16261 21.77942 6.593101 3.174545 -23.87712 7.789888 0.9978996 -19.2165 11.78702 91.62037 24.22899 -22.35672 -0 0 7.547818 -18.37601 8.994434 10.11032 7.961458 -26.20296 -5.725306 -85.43177 17.94604 11.96146 0 0 -29.31568 14.04619 14.33203 -2.089095
2.491021 104.2705 27.68875 0.8717399 -3.265567 1.087642 1.587875 -28.19483 -6.877961 -0 0.3578774 -0 -9.279713 4.741479 -0.2604958 -6.18798 17.4318 -8.468254 -0 11.2526 -0 2.702659 -21.56481 13.00061 -1.531641 -2.380466 2.51176 1.359756 11.00812 -7.311235 1.73348 23.23911 5.300405 1.802618 -21.42497 7.255289 -2.609323 -18.16949 10.94196 95.07606 16.73863 -23.62437 -0 0 3.540735 -21.50656 8.468147 11.63988 7.397485 -27.22937 -6.785372 -82.43242 18.7694 6.764857 0 0 -33.93942 10.44889 15.678 1.232804
2.226895 104.1722 34.37906 -0.1815432 -3.158304 1.229265 4.325182 -25.9194 -3.577321 -0 5.449737 -0 -10.42622 2.508496 -3.132953 -5.237286 20.06753 -9.808395 -0 21.81692 -0 -0.1139263 -18.89042 12.38026 -0.2712724 -3.368434 1.799522 1.365533 9.843377 -7.416208 2.646531 23.83931 4.662859 0.5782763 -21.94398 8.57929 -3.641622 -16.77651 10.10656 96.84613 17.02958 -24.47203 -0 0 1.815202 -19.98009 10.17634 11.18463 5.448489 -25.26722 -5.693571 -82.67513 23.21176 7.324999 0 0 -33.34275 5.768908 17.8814 7.58798
1.79726 105.2868 40.91441 -1.867311 -2.959999 1.160461 7.451226 -23.5969 -0.09857136 -0 13.30756 -0 -11.45121 1.201153 -4.426517 -3.770161 17.58177 -11.25241 -0 35.78018 -0 -1.804216 -14.42072 12.14155 1.572159 -3.444109 1.775876 1.301673 10.02394 -7.39249 3.157782 23.73557 4.677702 0.1283542 -23.51569 9.838793 -3.542567 -16.77851 10.1036 97.36263 19.18204 -24.36441 -0 0 2.496096 -19.14396 12.67202 10.96419 3.681828 -23.52093 -5.035062 -85.06711 25.73518 11.69119 0 0 -30.37701 3.512773 19.31112 11.71727
1.324062 107.1502 47.12999 -2.786978 -3.712065 0.8676147 9.110433 -19.67776 1.855769 -0 17.36724 -0 -11.8097 -0.009849426 -5.157971 -2.797585 12.5083 -11.56899 -0 48.56628 -0 -2.41793 -10.49278 12.11876 2.810031 -3.169695 2.410038 1.045228 10.96391 -7.157349 3.57096 23.59102 4.489721 -0.2580893 -24.56322 10.55625 -3.851907 -17.65201 10.43948 97.75934 19.78664 -23.73423 -0 0 3.843801 -19.7892 14.99358 11.47389 2.375898 -22.62728 -5.048083 -87.24342 26.61448 15.85818 0 0 -28.14961 2.247916 20.0964 14.43353
0.8515057 109.4029 52.94644 -3.061503 -4.873762 0.397866 9.552142 -14.81332 2.694335 -0 18.38695 -0 -11.62409 -1.743201 -5.701541 -2.11504 6.493851 -11.30062 -0 57.65114 -0 -2.518071 -7.608585 12.23112 3.376901 -2.744058 3.290455 0.703055 11.95573 -6.737392 3.934224 23.51254 4.106531 -0.7056476 -25.03789 10.90239 -4.32679 -18.83738 10.85194 97.85329 19.57159 -22.59757 -0 0 5.464455 -21.10775 17.04793 12.48087 1.461944 -22.08979 -5.278696 -88.89471 26.8977 19.21223 0 0 -26.50015 1.262112 20.55885 16.45595
0.3857321 111.7072 58.36039 -2.918786 -6.11166 -0.1614876 9.207014 -9.690339 2.690133 -0 17.51878 -0 -11.18521 -3.995732 -6.040803 -1.546601 0.617328 -10.84601 -0 62.11141 -0 -2.389477 -5.8074 12.57015 3.386428 -2.266908 4.091635 0.3253967 12.64014 -6.164403 4.207758 23.58694 3.69422 -1.09103 -24.88165 10.98434 -4.643716 -19.91112 11.21189 97.45886 19.33377 -20.9822 -0 0 7.061224 -22.70608 18.78258 13.7376 0.9775546 -21.66961 -5.482757 -90.0223 26.88433 21.48079 0 0 -24.94907 0.6092818 21.03962 17.59466
-0.06691 113.8143 63.42583 -2.588537 -7.22263 -0.7520332 8.53084 -4.694407 2.199776 -0 15.69953 -0 -10.69983 -6.478861 -6.159533 -0.9862312 -4.708244 -10.36705 -0 62.41185 -0 -2.115298 -4.845771 13.20822 3.049718 -1.825116 4.693464 -0.04192559 12.98602 -5.518308 4.371755 23.77225 3.358827 -1.350913 -24.27312 10.90684 -4.711262 -20.78926 11.48833 96.6028 19.39731 -19.00807 -0 0 8.565331 -24.40456 20.21981 15.12521 0.8494776 -21.26986 -5.568241 -90.814 26.64168 22.91863 0 0 -23.23733 0.2992432 21.63586 17.8994
-0.4883629 115.5636 68.22532 -2.246109 -8.081869 -1.341721 7.835256 -0.03810993 1.535504 -0 13.56839 -0 -10.2305 -8.937035 -6.092195 -0.3685536 -9.408302 -9.890776 -0 59.32642 -0 -1.696382 -4.441182 14.09487 2.574574 -1.487457 5.097285 -0.358263 13.09892 -4.8871 4.431708 23.96077 3.121435 -1.529834 -23.5038 10.76385 -4.612506 -21.59851 11.68939 95.44873 19.69705 -16.81606 -0 0 10.05646 -26.10574 21.40855 16.63105 0.9334505 -20.8577 -5.522173 -91.45984 26.21682 23.97826 0 0 -21.41003 0.2049034 22.25785 17.70073
-0.8537966 116.8594 72.84995 -1.989673 -8.640933 -1.91326 7.261399 4.168121 0.8716516 -0 11.50568 -0 -9.793368 -11.25008 -5.88582 0.3367351 -13.46251 -9.416732 -0 53.54533 -0 -1.133266 -4.373609 15.14117 2.096701 -1.291218 5.326087 -0.5991381 13.07224 -4.328734 4.403717 24.07957 2.967573 -1.687642 -22.77304 10.61416 -4.44164 -22.44711 11.8243 94.15244 20.09481 -14.51869 -0 0 11.59597 -27.74169 22.38642 18.2473 1.110945 -20.42368 -5.357774 -92.06164 25.65688 24.96062 0 0 -19.56665 0.2111906 22.81773 17.2802
-1.139204 117.6554 77.38865 -1.8579 -8.901306 -2.459213 6.842595 7.877948 0.2763187 -0 9.723135 -0 -9.4099 -13.37687 -5.572769 1.121459 -16.82721 -8.963314 -0 45.68692 -0 -0.4546425 -4.488621 16.27874 1.682194 -1.244654 5.395954 -0.7550439 12.95174 -3.868485 4.303619 24.10813 2.885308 -1.844943 -22.15417 10.48233 -4.237124 -23.35289 11.89552 92.80082 20.52593 -12.19642 -0 0 13.18312 -29.25066 23.16575 19.92413 1.31907 -19.9628 -5.091531 -92.65771 24.99282 25.97443 0 0 -17.72601 0.2744027 23.28147 16.7581
-1.325845 117.9452 81.92363 -1.853478 -8.888944 -2.981075 6.558757 11.08925 -0.2346109 -0 8.337878 -0 -9.10457 -15.29168 -5.166201 1.941543 -19.46271 -8.572634 -0 36.38437 -0 0.2800936 -4.673971 17.45284 1.355127 -1.336912 5.32585 -0.828996 12.75262 -3.508479 4.144873 24.0564 2.874567 -1.98498 -21.64638 10.37315 -3.99553 -24.27268 11.90216 91.42635 20.99341 -9.91141 -0 0 14.78121 -30.57819 23.74396 21.57877 1.534731 -19.47129 -4.740316 -93.26153 24.24253 27.02552 0 0 -15.84795 0.3958085 23.64417 16.1548
-1.402072 117.7589 86.52938 -1.956747 -8.643755 -3.488244 6.363894 13.82391 -0.6669697 -0 7.415705 -0 -8.896887 -16.9464 -4.665436 2.724658 -21.35665 -8.301007 -0 26.34806 -0 0.9863309 -4.845329 18.60144 1.117249 -1.545214 5.147038 -0.8353473 12.4796 -3.23631 3.94007 23.94628 2.944168 -2.068157 -21.2182 10.28184 -3.69677 -25.13609 11.84421 90.0376 21.531 -7.724347 -0 0 16.3387 -31.68269 24.11493 23.111 1.755927 -18.95185 -4.326124 -93.87631 23.41919 28.08036 0 0 -13.88662 0.5916935 23.90734 15.45667
-1.363634 117.1597 91.27248 -2.130803 -8.22024 -3.995821 6.197906 16.11733 -1.037216 -0 6.993939 -0 -8.801028 -18.25517 -4.062602 3.383449 -22.53655 -8.203991 -0 16.37728 -0 1.563605 -4.943097 19.65051 0.9557537 -1.836087 4.904427 -0.7992545 12.13833 -3.028974 3.702295 23.80366 3.10726 -2.040783 -20.82438 10.19684 -3.315804 -25.8624 11.72557 88.63472 22.18121 -5.698643 -0 0 17.79925 -32.53952 24.27393 24.41187 1.993018 -18.41777 -3.880902 -94.49878 22.53228 29.09107 0 0 -11.81091 0.8844453 24.07231 14.63876
-1.212781 116.2401 96.21121 -2.324935 -7.688489 -4.521085 5.994455 18.01232 -1.367984 -0 7.100038 -0 -8.829447 -19.09269 -3.3481 3.833196 -23.07499 -8.319573 -0 7.312344 -0 1.909612 -4.934057 20.52259 0.8464713 -2.165058 4.652109 -0.7549591 11.74092 -2.855209 3.445015 23.65434 3.377669 -1.841076 -20.41196 10.09966 -2.825368 -26.37112 11.55616 87.21317 22.98487 -3.893779 -0 0 19.11048 -33.14265 24.21947 25.37161 2.264954 -17.89326 -3.448173 -95.12201 21.58339 30.00774 0 0 -9.602061 1.304034 24.14028 13.66547
